<svg xmlns="http://www.w3.org/2000/svg" version="1.1" xmlns:xlink="http://www.w3.org/1999/xlink" xmlns:svgjs="http://svgjs.dev/svgjs" width="1440" height="560" preserveAspectRatio="none" viewBox="0 0 1440 560"><g mask="url(&quot;#SvgjsMask1010&quot;)" fill="none"><rect width="1440" height="560" x="0" y="0" fill="rgba(255, 255, 255, 1)"></rect><path d="M134.54 63.93L199.5 101.43L199.5 176.43L134.54 213.93L69.59 176.43L69.59 101.43zM134.54 288.93L199.5 326.43L199.5 401.43L134.54 438.93L69.59 401.43L69.59 326.43zM394.36 63.93L459.31 101.43L459.31 176.43L394.36 213.93L329.4 176.43L329.4 101.43zM589.22 -48.57L654.17 -11.07L654.17 63.93L589.22 101.43L524.27 63.93L524.27 -11.07zM654.17 63.93L719.13 101.43L719.13 176.43L654.17 213.93L589.22 176.43L589.22 101.43zM654.17 288.93L719.13 326.43L719.13 401.43L654.17 438.93L589.22 401.43L589.22 326.43zM784.08 63.93L849.04 101.43L849.04 176.43L784.08 213.93L719.13 176.43L719.13 101.43zM784.08 288.93L849.04 326.43L849.04 401.43L784.08 438.93L719.13 401.43L719.13 326.43zM849.03 -48.57L913.99 -11.07L913.99 63.93L849.03 101.43L784.08 63.93L784.08 -11.07zM849.03 176.43L913.99 213.93L913.99 288.93L849.03 326.43L784.08 288.93L784.08 213.93zM913.99 513.93L978.94 551.43L978.94 626.43L913.99 663.93L849.03 626.43L849.03 551.43zM1108.85 401.43L1173.8 438.93L1173.8 513.93L1108.85 551.43L1043.9 513.93L1043.9 438.93zM1303.71 63.93L1368.66 101.43L1368.66 176.43L1303.71 213.93L1238.76 176.43L1238.76 101.43zM1498.57 401.43L1563.53 438.93L1563.53 513.93L1498.57 551.43L1433.62 513.93L1433.62 438.93z" stroke="rgba(13, 202, 240, 1)" stroke-width="2"></path><path d="M127.04 63.93 a7.5 7.5 0 1 0 15 0 a7.5 7.5 0 1 0 -15 0zM192 101.43 a7.5 7.5 0 1 0 15 0 a7.5 7.5 0 1 0 -15 0zM192 176.43 a7.5 7.5 0 1 0 15 0 a7.5 7.5 0 1 0 -15 0zM127.04 213.93 a7.5 7.5 0 1 0 15 0 a7.5 7.5 0 1 0 -15 0zM62.09 176.43 a7.5 7.5 0 1 0 15 0 a7.5 7.5 0 1 0 -15 0zM62.09 101.43 a7.5 7.5 0 1 0 15 0 a7.5 7.5 0 1 0 -15 0zM127.04 288.93 a7.5 7.5 0 1 0 15 0 a7.5 7.5 0 1 0 -15 0zM192 326.43 a7.5 7.5 0 1 0 15 0 a7.5 7.5 0 1 0 -15 0zM192 401.43 a7.5 7.5 0 1 0 15 0 a7.5 7.5 0 1 0 -15 0zM127.04 438.93 a7.5 7.5 0 1 0 15 0 a7.5 7.5 0 1 0 -15 0zM62.09 401.43 a7.5 7.5 0 1 0 15 0 a7.5 7.5 0 1 0 -15 0zM62.09 326.43 a7.5 7.5 0 1 0 15 0 a7.5 7.5 0 1 0 -15 0zM386.86 63.93 a7.5 7.5 0 1 0 15 0 a7.5 7.5 0 1 0 -15 0zM451.81 101.43 a7.5 7.5 0 1 0 15 0 a7.5 7.5 0 1 0 -15 0zM451.81 176.43 a7.5 7.5 0 1 0 15 0 a7.5 7.5 0 1 0 -15 0zM386.86 213.93 a7.5 7.5 0 1 0 15 0 a7.5 7.5 0 1 0 -15 0zM321.9 176.43 a7.5 7.5 0 1 0 15 0 a7.5 7.5 0 1 0 -15 0zM321.9 101.43 a7.5 7.5 0 1 0 15 0 a7.5 7.5 0 1 0 -15 0zM581.72 -48.57 a7.5 7.5 0 1 0 15 0 a7.5 7.5 0 1 0 -15 0zM646.67 -11.07 a7.5 7.5 0 1 0 15 0 a7.5 7.5 0 1 0 -15 0zM646.67 63.93 a7.5 7.5 0 1 0 15 0 a7.5 7.5 0 1 0 -15 0zM581.72 101.43 a7.5 7.5 0 1 0 15 0 a7.5 7.5 0 1 0 -15 0zM516.77 63.93 a7.5 7.5 0 1 0 15 0 a7.5 7.5 0 1 0 -15 0zM516.77 -11.07 a7.5 7.5 0 1 0 15 0 a7.5 7.5 0 1 0 -15 0zM711.63 101.43 a7.5 7.5 0 1 0 15 0 a7.5 7.5 0 1 0 -15 0zM711.63 176.43 a7.5 7.5 0 1 0 15 0 a7.5 7.5 0 1 0 -15 0zM646.67 213.93 a7.5 7.5 0 1 0 15 0 a7.5 7.5 0 1 0 -15 0zM581.72 176.43 a7.5 7.5 0 1 0 15 0 a7.5 7.5 0 1 0 -15 0zM646.67 288.93 a7.5 7.5 0 1 0 15 0 a7.5 7.5 0 1 0 -15 0zM711.63 326.43 a7.5 7.5 0 1 0 15 0 a7.5 7.5 0 1 0 -15 0zM711.63 401.43 a7.5 7.5 0 1 0 15 0 a7.5 7.5 0 1 0 -15 0zM646.67 438.93 a7.5 7.5 0 1 0 15 0 a7.5 7.5 0 1 0 -15 0zM581.72 401.43 a7.5 7.5 0 1 0 15 0 a7.5 7.5 0 1 0 -15 0zM581.72 326.43 a7.5 7.5 0 1 0 15 0 a7.5 7.5 0 1 0 -15 0zM776.58 63.93 a7.5 7.5 0 1 0 15 0 a7.5 7.5 0 1 0 -15 0zM841.54 101.43 a7.5 7.5 0 1 0 15 0 a7.5 7.5 0 1 0 -15 0zM841.54 176.43 a7.5 7.5 0 1 0 15 0 a7.5 7.5 0 1 0 -15 0zM776.58 213.93 a7.5 7.5 0 1 0 15 0 a7.5 7.5 0 1 0 -15 0zM776.58 288.93 a7.5 7.5 0 1 0 15 0 a7.5 7.5 0 1 0 -15 0zM841.54 326.43 a7.5 7.5 0 1 0 15 0 a7.5 7.5 0 1 0 -15 0zM841.54 401.43 a7.5 7.5 0 1 0 15 0 a7.5 7.5 0 1 0 -15 0zM776.58 438.93 a7.5 7.5 0 1 0 15 0 a7.5 7.5 0 1 0 -15 0zM841.53 -48.57 a7.5 7.5 0 1 0 15 0 a7.5 7.5 0 1 0 -15 0zM906.49 -11.07 a7.5 7.5 0 1 0 15 0 a7.5 7.5 0 1 0 -15 0zM906.49 63.93 a7.5 7.5 0 1 0 15 0 a7.5 7.5 0 1 0 -15 0zM841.53 101.43 a7.5 7.5 0 1 0 15 0 a7.5 7.5 0 1 0 -15 0zM776.58 -11.07 a7.5 7.5 0 1 0 15 0 a7.5 7.5 0 1 0 -15 0zM841.53 176.43 a7.5 7.5 0 1 0 15 0 a7.5 7.5 0 1 0 -15 0zM906.49 213.93 a7.5 7.5 0 1 0 15 0 a7.5 7.5 0 1 0 -15 0zM906.49 288.93 a7.5 7.5 0 1 0 15 0 a7.5 7.5 0 1 0 -15 0zM841.53 326.43 a7.5 7.5 0 1 0 15 0 a7.5 7.5 0 1 0 -15 0zM906.49 513.93 a7.5 7.5 0 1 0 15 0 a7.5 7.5 0 1 0 -15 0zM971.44 551.43 a7.5 7.5 0 1 0 15 0 a7.5 7.5 0 1 0 -15 0zM971.44 626.43 a7.5 7.5 0 1 0 15 0 a7.5 7.5 0 1 0 -15 0zM906.49 663.93 a7.5 7.5 0 1 0 15 0 a7.5 7.5 0 1 0 -15 0zM841.53 626.43 a7.5 7.5 0 1 0 15 0 a7.5 7.5 0 1 0 -15 0zM841.53 551.43 a7.5 7.5 0 1 0 15 0 a7.5 7.5 0 1 0 -15 0zM1101.35 401.43 a7.5 7.5 0 1 0 15 0 a7.5 7.5 0 1 0 -15 0zM1166.3 438.93 a7.5 7.5 0 1 0 15 0 a7.5 7.5 0 1 0 -15 0zM1166.3 513.93 a7.5 7.5 0 1 0 15 0 a7.5 7.5 0 1 0 -15 0zM1101.35 551.43 a7.5 7.5 0 1 0 15 0 a7.5 7.5 0 1 0 -15 0zM1036.4 513.93 a7.5 7.5 0 1 0 15 0 a7.5 7.5 0 1 0 -15 0zM1036.4 438.93 a7.5 7.5 0 1 0 15 0 a7.5 7.5 0 1 0 -15 0zM1296.21 63.93 a7.5 7.5 0 1 0 15 0 a7.5 7.5 0 1 0 -15 0zM1361.16 101.43 a7.5 7.5 0 1 0 15 0 a7.5 7.5 0 1 0 -15 0zM1361.16 176.43 a7.5 7.5 0 1 0 15 0 a7.5 7.5 0 1 0 -15 0zM1296.21 213.93 a7.5 7.5 0 1 0 15 0 a7.5 7.5 0 1 0 -15 0zM1231.26 176.43 a7.5 7.5 0 1 0 15 0 a7.5 7.5 0 1 0 -15 0zM1231.26 101.43 a7.5 7.5 0 1 0 15 0 a7.5 7.5 0 1 0 -15 0zM1491.07 401.43 a7.5 7.5 0 1 0 15 0 a7.5 7.5 0 1 0 -15 0zM1556.03 438.93 a7.5 7.5 0 1 0 15 0 a7.5 7.5 0 1 0 -15 0zM1556.03 513.93 a7.5 7.5 0 1 0 15 0 a7.5 7.5 0 1 0 -15 0zM1491.07 551.43 a7.5 7.5 0 1 0 15 0 a7.5 7.5 0 1 0 -15 0zM1426.12 513.93 a7.5 7.5 0 1 0 15 0 a7.5 7.5 0 1 0 -15 0zM1426.12 438.93 a7.5 7.5 0 1 0 15 0 a7.5 7.5 0 1 0 -15 0z" fill="rgba(13, 202, 240, 1)"></path><path d="M47.85 489.74L91.16 514.74L91.16 564.74L47.85 589.74L4.55 564.74L4.55 514.74zM264.37 -35.26L307.67 -10.26L307.67 39.74L264.37 64.74L221.06 39.74L221.06 -10.26zM307.67 39.74L350.97 64.74L350.97 114.74L307.67 139.74L264.37 114.74L264.37 64.74zM394.27 39.74L437.58 64.74L437.58 114.74L394.27 139.74L350.97 114.74L350.97 64.74zM350.97 114.74L394.27 139.74L394.27 189.74L350.97 214.74L307.67 189.74L307.67 139.74zM394.27 189.74L437.58 214.74L437.58 264.74L394.27 289.74L350.97 264.74L350.97 214.74zM437.58 -35.26L480.88 -10.26L480.88 39.74L437.58 64.74L394.27 39.74L394.27 -10.26zM437.58 114.74L480.88 139.74L480.88 189.74L437.58 214.74L394.27 189.74L394.27 139.74zM437.58 264.74L480.88 289.74L480.88 339.74L437.58 364.74L394.27 339.74L394.27 289.74zM610.78 264.74L654.09 289.74L654.09 339.74L610.78 364.74L567.48 339.74L567.48 289.74zM654.09 489.74L697.39 514.74L697.39 564.74L654.09 589.74L610.78 564.74L610.78 514.74zM697.39 -35.26L740.69 -10.26L740.69 39.74L697.39 64.74L654.09 39.74L654.09 -10.26zM697.39 264.74L740.69 289.74L740.69 339.74L697.39 364.74L654.09 339.74L654.09 289.74zM827.3 189.74L870.6 214.74L870.6 264.74L827.3 289.74L784 264.74L784 214.74zM827.3 339.74L870.6 364.74L870.6 414.74L827.3 439.74L784 414.74L784 364.74zM870.6 114.74L913.9 139.74L913.9 189.74L870.6 214.74L827.3 189.74L827.3 139.74zM1000.51 339.74L1043.81 364.74L1043.81 414.74L1000.51 439.74L957.21 414.74L957.21 364.74zM1000.51 489.74L1043.81 514.74L1043.81 564.74L1000.51 589.74L957.21 564.74L957.21 514.74zM1043.81 -35.26L1087.11 -10.26L1087.11 39.74L1043.81 64.74L1000.51 39.74L1000.51 -10.26zM1087.11 39.74L1130.41 64.74L1130.41 114.74L1087.11 139.74L1043.81 114.74L1043.81 64.74zM1043.81 414.74L1087.11 439.74L1087.11 489.74L1043.81 514.74L1000.51 489.74L1000.51 439.74zM1217.02 114.74L1260.32 139.74L1260.32 189.74L1217.02 214.74L1173.72 189.74L1173.72 139.74zM1260.32 189.74L1303.63 214.74L1303.63 264.74L1260.32 289.74L1217.02 264.74L1217.02 214.74zM1217.02 414.74L1260.32 439.74L1260.32 489.74L1217.02 514.74L1173.72 489.74L1173.72 439.74zM1303.63 414.74L1346.93 439.74L1346.93 489.74L1303.63 514.74L1260.32 489.74L1260.32 439.74zM1433.53 189.74L1476.84 214.74L1476.84 264.74L1433.53 289.74L1390.23 264.74L1390.23 214.74z" stroke="rgba(255, 193, 7, 1)" stroke-width="2"></path></g><defs><mask id="SvgjsMask1010"><rect width="1440" height="560" fill="#ffffff"></rect></mask></defs></svg>